<svg xmlns="http://www.w3.org/2000/svg" xmlns:xlink="http://www.w3.org/1999/xlink" width="656" height="174" viewBox="0 0 656 174">
  <defs>
    <polygon id="logo-horizontal-a" points=".06 84.035 .06 .828 163.667 .828 163.667 84.035"/>
    <polygon id="logo-horizontal-c" points="95.963 71.94 .258 71.94 .258 .722 95.963 .722 95.963 71.94"/>
  </defs>
  <g fill="none" fill-rule="evenodd">
    <path fill="#56c02b" d="M44.7,62.197 C46.864,58.519 49.489,55.15 52.499,52.166 L26.928,24.129 C20.494,30.275 15.009,37.402 10.694,45.258 L44.7,62.197"/>
    <path fill="#dda63a" d="M107.384,42.389 C111.257,44.162 114.856,46.426 118.107,49.107 L143.751,21.111 C136.996,15.287 129.338,10.48 121.025,6.933 L107.384,42.389"/>
    <path fill="#c5192d" d="M166.108,50.82 L132.122,67.762 C133.745,71.551 134.899,75.574 135.526,79.771 L173.332,76.203 C172.216,67.25 169.738,58.717 166.108,50.82"/>
    <g transform="translate(0 24)">
      <mask id="logo-horizontal-b" fill="#fff">
        <use xlink:href="#logo-horizontal-a"/>
      </mask>
      <path fill="#4c9f38" d="M129.685,38.849 L163.667,21.912 C159.456,14.088 154.089,6.984 147.786,0.828 L122.143,28.818 C125.063,31.816 127.604,35.185 129.685,38.849" mask="url(#logo-horizontal-b)"/>
      <path fill="#3f7e44" d="M37.946,63.002 C37.946,62.238 37.973,61.473 38.006,60.713 L0.19,57.328 C0.072,59.203 0,61.094 0,63.002 C0,70.254 0.9,77.301 2.574,84.035 L39.097,73.558 C38.349,70.156 37.946,66.627 37.946,63.002" mask="url(#logo-horizontal-b)"/>
    </g>
    <path fill="#fcc30b" d="M124.925,118.082 C122.237,121.353 119.136,124.269 115.703,126.758 L135.669,159.084 C143.079,154.064 149.676,147.931 155.22,140.926 L124.925,118.082"/>
    <path fill="#ff3a21" d="M136.054,87.002 C136.054,90.582 135.669,94.072 134.93,97.435 L171.448,107.928 C173.112,101.222 174,94.211 174,87.002 C174,85.211 173.94,83.431 173.83,81.662 L136.018,85.232 C136.041,85.824 136.054,86.41 136.054,87.002"/>
    <path fill="#fd9d24" d="M49.689,118.804 L19.464,141.775 C25.085,148.697 31.743,154.73 39.202,159.658 L59.163,127.365 C55.648,124.933 52.46,122.051 49.689,118.804"/>
    <path fill="#0a97d9" d="M38.56,79.258 C39.236,74.986 40.474,70.9 42.182,67.074 L8.209,50.15 C4.456,58.137 1.881,66.785 0.71,75.863 L38.56,79.258"/>
    <path fill="#a21942" d="M131.024,162.01 L111.088,129.724 C107.466,131.769 103.563,133.375 99.452,134.453 L106.488,171.797 C115.243,169.785 123.495,166.447 131.024,162.01"/>
    <g transform="translate(74 102)">
      <mask id="logo-horizontal-d" fill="#fff">
        <use xlink:href="#logo-horizontal-c"/>
      </mask>
      <path fill="#26bde2" d="M59.476,0.722 C58.153,4.607 56.364,8.271 54.167,11.652 L84.487,34.521 C89.412,27.443 93.306,19.603 95.963,11.209 L59.476,0.722" mask="url(#logo-horizontal-d)"/>
      <path fill="#fd6925" d="M20.075,33.543 C17.769,33.877 15.404,34.056 13,34.056 C11.069,34.056 9.161,33.937 7.29,33.719 L0.258,71.066 C4.419,71.676 8.672,72 13,72 C17.802,72 22.514,71.605 27.104,70.855 L20.075,33.543" mask="url(#logo-horizontal-d)"/>
    </g>
    <path fill="#e5243b" d="M90.137,38.045 C94.351,38.316 98.419,39.115 102.276,40.389 L115.914,4.941 C107.8,2.076 99.143,0.381 90.137,0.064 L90.137,38.045"/>
    <path fill="#dd1367" d="M75.884,134.785 C71.632,133.793 67.591,132.25 63.843,130.232 L43.868,162.539 C51.553,166.937 59.954,170.193 68.859,172.092 L75.884,134.785"/>
    <path fill="#19486a" d="M72.258,40.215 C76.196,38.969 80.352,38.209 84.649,38.008 L84.649,0.033 C75.522,0.277 66.751,1.939 58.526,4.791 L72.258,40.215"/>
    <path fill="#bf8b2e" d="M46.361,114.441 C43.953,110.883 41.986,106.984 40.575,102.842 L4.079,113.314 C6.843,122.019 10.939,130.129 16.134,137.412 L46.361,114.441"/>
    <path fill="#00689d" d="M56.608,48.525 C59.814,45.984 63.343,43.846 67.128,42.16 L53.403,6.756 C45.228,10.187 37.697,14.834 31.019,20.465 L56.608,48.525"/>
    <path fill="#000206" d="M319.336,65.486 L333.444,65.486 L333.444,96.969 L326.307,96.969 L326.307,90.537 C324.988,94.965 322.205,97.66 316.807,97.66 C308.277,97.66 304.364,90.885 304.364,81.756 L304.364,53.228 C304.364,44.017 308.8,37.314 319.256,37.314 C330.22,37.314 333.444,43.404 333.444,52.105 L333.444,57.316 L324.387,57.316 L324.387,51.314 C324.387,47.662 322.988,45.582 319.416,45.582 C315.851,45.582 314.299,48.103 314.299,51.67 L314.299,83.314 C314.299,86.881 315.77,89.398 319.169,89.398 C322.386,89.398 324.038,87.576 324.038,83.754 L324.038,73.32 L319.336,73.32 L319.336,65.486"/>
    <polyline fill="#000206" points="338.233 38.023 348.161 38.023 348.161 88.885 359.995 88.885 359.995 96.969 338.233 96.969 338.233 38.023"/>
    <path fill="#000206" d="M383.342 83.314L383.342 51.67C383.342 48.103 381.77 45.578 378.19 45.578 374.712 45.578 373.14 48.103 373.14 51.67L373.14 83.314C373.14 86.881 374.712 89.406 378.19 89.406 381.77 89.406 383.342 86.881 383.342 83.314M363.213 81.756L363.213 53.228C363.213 44.017 367.748 37.33 378.19 37.33 388.727 37.33 393.256 44.017 393.256 53.228L393.256 81.756C393.256 90.885 388.727 97.66 378.19 97.66 367.748 97.66 363.213 90.885 363.213 81.756M407.966 70.447L407.966 88.885 412.321 88.885C415.632 88.885 417.197 87.228 417.197 84.098L417.197 75.234C417.197 72.107 415.72 70.447 412.234 70.447L407.966 70.447zM407.966 62.881L411.451 62.881C414.683 62.881 416.161 61.228 416.161 58.101L416.161 50.883C416.161 47.662 414.683 46.107 411.371 46.107L407.966 46.107 407.966 62.881zM398.045 38.023L412.408 38.023C422.342 38.023 425.646 42.625 425.646 50.967L425.646 56.971C425.646 61.922 423.813 65.062 419.727 66.367 424.684 67.498 427.125 70.795 427.125 76.191L427.125 84.014C427.125 92.363 423.386 96.969 413.458 96.969L398.045 96.969 398.045 38.023 398.045 38.023zM441.661 78.271L449.582 78.271 445.675 54.631 445.582 54.631 441.661 78.271zM429.212 96.969L440.357 38.023 451.683 38.023 462.914 96.969 452.72 96.969 450.887 86.191 440.357 86.191 438.618 96.969 429.212 96.969 429.212 96.969z"/>
    <polyline fill="#000206" points="466.139 38.023 476.066 38.023 476.066 88.885 487.899 88.885 487.899 96.969 466.139 96.969 466.139 38.023"/>
    <path fill="#000206" d="M514.806 65.486L528.907 65.486 528.907 96.969 521.769 96.969 521.769 90.537C520.458 94.965 517.675 97.66 512.276 97.66 503.741 97.66 499.827 90.885 499.827 81.756L499.827 53.228C499.827 44.017 504.263 37.314 514.712 37.314 525.683 37.314 528.907 43.404 528.907 52.105L528.907 57.316 519.856 57.316 519.856 51.314C519.856 47.662 518.451 45.582 514.879 45.582 511.313 45.582 509.748 48.103 509.748 51.67L509.748 83.314C509.748 86.881 511.227 89.398 514.632 89.398 517.85 89.398 519.502 87.576 519.502 83.754L519.502 73.32 514.806 73.32 514.806 65.486M553.813 83.314L553.813 51.67C553.813 48.103 552.233 45.578 548.675 45.578 545.183 45.578 543.61 48.103 543.61 51.67L543.61 83.314C543.61 86.881 545.183 89.406 548.675 89.406 552.233 89.406 553.813 86.881 553.813 83.314M533.697 81.756L533.697 53.228C533.697 44.017 538.219 37.33 548.675 37.33 559.204 37.33 563.727 44.017 563.727 53.228L563.727 81.756C563.727 90.885 559.204 97.66 548.675 97.66 538.219 97.66 533.697 90.885 533.697 81.756M578.102 78.271L586.022 78.271 582.102 54.631 582.016 54.631 578.102 78.271zM565.646 96.969L576.791 38.023 588.116 38.023 599.349 96.969 589.153 96.969 587.327 86.191 576.791 86.191 575.045 96.969 565.646 96.969 565.646 96.969z"/>
    <polyline fill="#000206" points="602.56 38.023 612.48 38.023 612.48 88.885 624.334 88.885 624.334 96.969 602.56 96.969 602.56 38.023"/>
    <path fill="#000206" d="M627.03,84.277 L627.03,76.357 L636.255,76.357 L636.255,84.449 C636.255,87.756 637.747,89.664 641.139,89.664 C644.268,89.664 645.66,87.576 645.66,84.449 L645.66,82.187 C645.66,78.789 644.268,76.709 641.219,73.84 L635.379,68.015 C629.726,62.449 627.117,59.058 627.117,52.279 L627.117,50.275 C627.117,42.971 631.385,37.316 641.045,37.316 C650.972,37.316 654.892,42.197 654.892,50.713 L654.892,55.504 L645.834,55.504 L645.834,50.365 C645.834,46.974 644.268,45.318 641.139,45.318 C638.342,45.318 636.429,46.887 636.429,50.191 L636.429,51.402 C636.429,54.713 638.262,56.619 641.139,59.402 L647.493,65.66 C652.885,71.142 655.501,74.451 655.501,80.971 L655.501,83.84 C655.501,91.928 651.152,97.66 641.045,97.66 C630.943,97.66 627.03,92.015 627.03,84.277"/>
    <polyline fill="#000206" points="203.546 38.023 229.923 38.023 229.923 46.107 221.734 46.107 221.734 96.969 211.727 96.969 211.727 46.107 203.546 46.107 203.546 38.023"/>
    <polyline fill="#000206" points="253.162 70.976 243.59 70.976 243.59 96.969 233.669 96.969 233.669 38.023 243.59 38.023 243.59 62.974 253.162 62.974 253.162 38.023 263.177 38.023 263.177 96.969 253.162 96.969 253.162 70.976"/>
    <polyline fill="#000206" points="267.967 38.023 291.654 38.023 291.654 46.107 277.9 46.107 277.9 62.974 287.734 62.974 287.734 70.976 277.9 70.976 277.9 88.885 291.654 88.885 291.654 96.969 267.967 96.969 267.967 38.023"/>
    <polyline fill="#161617" points="224.279 123.908 212.528 123.908 212.528 137.008 210.047 137.008 210.047 109.642 225.554 109.642 225.554 111.941 212.528 111.941 212.528 121.613 224.279 121.613 224.279 123.908"/>
    <path fill="#161617" d="M236.352 120.664C231.533 120.664 231.241 123.762 231.241 127.885 231.241 132.01 231.533 135.111 236.352 135.111 241.095 135.111 241.459 132.01 241.459 127.885 241.459 123.762 241.095 120.664 236.352 120.664zM236.352 137.373C230.111 137.373 228.688 133.472 228.688 127.885 228.688 122.303 230.111 118.398 236.352 118.398 242.628 118.398 244.014 122.303 244.014 127.885 244.014 133.472 242.628 137.373 236.352 137.373L236.352 137.373zM258.422 120.957C257.875 120.769 257.143 120.664 256.233 120.664 253.751 120.664 252.292 121.062 250.943 121.828L250.943 137.008 248.388 137.008 248.388 118.763 249.811 118.763 250.356 120.293C252.072 119.021 254.19 118.398 256.233 118.398 257.072 118.398 257.726 118.474 258.422 118.584L258.422 120.957M269.949 116.937C269.949 120.844 272.21 121.209 276.516 121.756 281.879 122.453 285.2 123.762 285.2 129.125 285.2 132.849 283.231 137.373 275.092 137.373 272.574 137.373 269.146 136.679 267.43 135.914L267.43 133.543C269.18 134.129 271.331 135.072 275.132 135.072 280.819 135.072 282.535 132.414 282.535 129.125 282.535 125.221 280.93 124.457 276.368 123.875 269.909 123.068 267.43 121.572 267.43 116.902 267.43 113.73 268.965 109.277 276.625 109.277 279.982 109.277 282.241 109.863 283.741 110.553L283.741 112.998C281.262 111.941 279.29 111.574 276.588 111.574 271.188 111.574 269.949 114.056 269.949 116.937M291.909 132.01C291.909 134.383 293.291 135.111 295.56 135.111 297.93 135.111 299.135 134.709 300.484 133.941L300.484 118.763 303.039 118.763 303.039 137.008 301.617 137.008 301.07 135.474C299.349 136.754 297.489 137.373 295.56 137.373 291.213 137.373 289.354 135.4 289.354 131.9L289.354 118.763 291.909 118.763 291.909 132.01M313.87 126.537C319.051 127.006 320.297 128.762 320.297 131.756 320.297 134.564 318.504 137.373 312.957 137.373 311.205 137.373 308.689 136.937 307.52 136.461L307.52 134.271C308.652 134.676 310.405 135.111 312.994 135.111 316.788 135.111 317.811 133.506 317.811 131.789 317.811 130.111 317.302 128.945 313.688 128.652 308.396 128.176 307.301 126.316 307.301 123.799 307.301 121.209 308.982 118.398 314.13 118.398 315.839 118.398 317.774 118.617 319.38 119.31L319.38 121.502C317.957 121.025 316.535 120.664 314.09 120.664 310.478 120.664 309.709 122.008 309.709 123.799 309.709 125.406 310.365 126.246 313.87 126.537M334.045 137.226C333.608 137.336 332.876 137.373 332.403 137.373 329.378 137.373 326.563 135.988 326.563 132.414L326.563 120.769 322.915 120.769 322.915 119.64 326.563 118.584 326.563 113.654 329.117 112.924 329.117 118.763 334.774 118.763 334.774 120.769 329.117 120.769 329.117 132.119C329.117 134.346 330.32 135.258 332.623 135.258 333.096 135.258 333.572 135.221 334.045 135.181L334.045 137.226M344.006 127.779C341.411 128.033 340.281 129.379 340.281 131.496 340.281 133.142 340.685 135.111 344.148 135.111 346.121 135.111 347.434 134.564 349 133.652L349 127.299 344.006 127.779zM344.658 120.664C342.217 120.664 340.611 121.099 339.188 121.572L339.188 119.383C340.791 118.691 342.91 118.398 344.658 118.398 350.133 118.398 351.555 120.879 351.555 124.531L351.555 137.008 350.133 137.008 349.586 135.551C347.944 136.754 345.901 137.373 344.076 137.373 339.292 137.373 337.693 134.564 337.693 131.496 337.693 128.398 339.405 126.097 344.185 125.806L349 125.513 349 124.49C349 121.828 348.054 120.664 344.658 120.664L344.658 120.664zM356.879 133.359L356.879 118.763 359.36 118.763 359.36 133.652C359.36 134.928 359.76 135.295 360.893 135.295L360.893 137.373C358.264 137.373 356.879 136.277 356.879 133.359zM358.121 111.469C359.145 111.469 359.947 112.267 359.947 113.291 359.947 114.314 359.145 115.117 358.121 115.117 357.102 115.117 356.295 114.314 356.295 113.291 356.295 112.267 357.102 111.469 358.121 111.469L358.121 111.469zM376.181 123.762C376.181 121.388 374.795 120.664 372.533 120.664 370.16 120.664 368.955 121.062 367.602 121.828L367.602 137.008 365.051 137.008 365.051 118.763 366.477 118.763 367.022 120.293C368.738 119.021 370.598 118.398 372.533 118.398 376.874 118.398 378.735 120.369 378.735 123.875L378.735 137.008 376.181 137.008 376.181 123.762M389.057 127.779C386.465 128.033 385.335 129.379 385.335 131.496 385.335 133.142 385.738 135.111 389.203 135.111 391.169 135.111 392.488 134.564 394.054 133.652L394.054 127.299 389.057 127.779zM389.713 120.664C387.268 120.664 385.662 121.099 384.24 121.572L384.24 119.383C385.846 118.691 387.964 118.398 389.713 118.398 395.185 118.398 396.609 120.879 396.609 124.531L396.609 137.008 395.185 137.008 394.641 135.551C393.002 136.754 390.956 137.373 389.131 137.373 384.346 137.373 382.747 134.564 382.747 131.496 382.747 128.398 384.459 126.097 389.24 125.806L394.054 125.513 394.054 124.49C394.054 121.828 393.107 120.664 389.713 120.664L389.713 120.664zM403.901 121.828L403.901 133.941C405.324 134.709 406.641 135.111 409.012 135.111 413.39 135.111 413.935 131.496 413.935 127.885 413.935 124.271 413.39 120.664 409.012 120.664 406.641 120.664 405.324 121.062 403.901 121.828zM416.491 127.885C416.491 133.142 414.885 137.373 409.012 137.373 407.043 137.373 405.217 136.717 403.318 135.512L402.771 137.008 401.35 137.008 401.35 109.642 403.901 109.642 403.901 119.896C405.474 118.871 407.332 118.398 409.012 118.398 414.885 118.398 416.491 122.633 416.491 127.885L416.491 127.885zM421.451 133.359L421.451 109.642 423.933 109.642 423.933 133.652C423.933 134.928 424.336 135.295 425.462 135.295L425.462 137.373C422.837 137.373 421.451 136.277 421.451 133.359M431.809 126.976L441.297 126.976C441.297 123.724 441.113 120.664 436.923 120.664 432.685 120.664 431.918 123.691 431.809 126.976zM436.923 118.398C443.122 118.398 443.852 122.633 443.852 127.885L443.852 129.054 431.809 129.054C431.958 132.23 432.795 135.111 436.923 135.111 439.548 135.111 441.152 134.855 442.938 134.09L442.938 136.277C440.893 137.189 438.707 137.373 436.923 137.373 430.756 137.373 429.26 133.142 429.26 127.885 429.26 122.633 430.756 118.398 436.923 118.398L436.923 118.398zM457.27 134.709L462.381 134.709C468.947 134.709 471.14 129.89 471.14 123.328 471.14 116.76 468.947 111.941 462.381 111.941L457.27 111.941 457.27 134.709zM454.795 137.008L454.795 109.642 462.234 109.642C471.176 109.642 473.764 115.556 473.764 123.328 473.764 131.099 471.176 137.008 462.234 137.008L454.795 137.008 454.795 137.008zM480.51 126.976L489.998 126.976C489.998 123.724 489.814 120.664 485.621 120.664 481.39 120.664 480.62 123.691 480.51 126.976zM485.621 118.398C491.824 118.398 492.554 122.633 492.554 127.885L492.554 129.054 480.51 129.054C480.657 132.23 481.5 135.111 485.621 135.111 488.246 135.111 489.852 134.855 491.645 134.09L491.645 136.277C489.595 137.189 487.406 137.373 485.621 137.373 479.451 137.373 477.959 133.142 477.959 127.885 477.959 122.633 479.451 118.398 485.621 118.398L485.621 118.398z"/>
    <polyline fill="#161617" points="497.73 118.763 502.947 133.724 508.165 118.763 510.973 118.763 503.857 137.373 502.038 137.373 494.922 118.763 497.73 118.763"/>
    <path fill="#161617" d="M515.533 126.976L525.018 126.976C525.018 123.724 524.838 120.664 520.641 120.664 516.41 120.664 515.643 123.691 515.533 126.976zM520.641 118.398C526.844 118.398 527.573 122.633 527.573 127.885L527.573 129.054 515.533 129.054C515.677 132.23 516.519 135.111 520.641 135.111 523.267 135.111 524.871 134.855 526.664 134.09L526.664 136.277C524.618 137.189 522.43 137.373 520.641 137.373 514.475 137.373 512.979 133.142 512.979 127.885 512.979 122.633 514.475 118.398 520.641 118.398L520.641 118.398zM532.534 133.359L532.534 109.642 535.012 109.642 535.012 133.652C535.012 134.928 535.416 135.295 536.545 135.295L536.545 137.373C533.92 137.373 532.534 136.277 532.534 133.359M548.002 120.664C543.185 120.664 542.894 123.762 542.894 127.885 542.894 132.01 543.185 135.111 548.002 135.111 552.746 135.111 553.108 132.01 553.108 127.885 553.108 123.762 552.746 120.664 548.002 120.664zM548.002 137.373C541.763 137.373 540.34 133.472 540.34 127.885 540.34 122.303 541.763 118.398 548.002 118.398 554.278 118.398 555.664 122.303 555.664 127.885 555.664 133.472 554.278 137.373 548.002 137.373L548.002 137.373zM572.624 127.885C572.624 124.271 572.078 120.664 567.7 120.664 565.328 120.664 564.016 121.062 562.593 121.828L562.593 133.941C564.016 134.709 565.328 135.111 567.7 135.111 572.078 135.111 572.624 131.496 572.624 127.885zM562.593 135.877L562.593 146.127 560.037 146.127 560.037 118.763 561.461 118.763 562.008 120.26C563.906 119.058 565.731 118.398 567.7 118.398 573.574 118.398 575.179 122.633 575.179 127.885 575.179 133.142 573.574 137.373 567.7 137.373 566.021 137.373 564.158 136.896 562.593 135.877L562.593 135.877zM601.081 123.762C601.081 121.388 599.695 120.664 597.616 120.664 595.354 120.664 594.111 121.099 592.652 121.865 592.8 122.453 592.873 123.068 592.873 123.762L592.873 137.008 590.317 137.008 590.317 123.762C590.317 121.388 588.932 120.664 586.852 120.664 584.733 120.664 583.534 121.025 582.109 121.756L582.109 137.008 579.557 137.008 579.557 118.763 580.979 118.763 581.525 120.26C583.278 118.984 585.177 118.398 586.852 118.398 589.298 118.398 591.014 119.09 591.959 120.476 593.859 119.164 595.791 118.398 597.616 118.398 601.521 118.398 603.633 120.224 603.633 123.875L603.633 137.008 601.081 137.008 601.081 123.762M610.379 126.976L619.867 126.976C619.867 123.724 619.686 120.664 615.49 120.664 611.259 120.664 610.489 123.691 610.379 126.976zM615.49 118.398C621.692 118.398 622.422 122.633 622.422 127.885L622.422 129.054 610.379 129.054C610.529 132.23 611.369 135.111 615.49 135.111 618.118 135.111 619.724 134.855 621.513 134.09L621.513 136.277C619.467 137.189 617.278 137.373 615.49 137.373 609.323 137.373 607.827 133.142 607.827 127.885 607.827 122.633 609.323 118.398 615.49 118.398L615.49 118.398zM637.923 123.762C637.923 121.388 636.537 120.664 634.275 120.664 631.903 120.664 630.697 121.062 629.352 121.828L629.352 137.008 626.793 137.008 626.793 118.763 628.219 118.763 628.766 120.293C630.481 119.021 632.34 118.398 634.275 118.398 638.616 118.398 640.478 120.369 640.478 123.875L640.478 137.008 637.923 137.008 637.923 123.762M654.523 137.226C654.084 137.336 653.354 137.373 652.882 137.373 649.852 137.373 647.042 135.988 647.042 132.414L647.042 120.769 643.393 120.769 643.393 119.64 647.042 118.584 647.042 113.654 649.597 112.924 649.597 118.763 655.253 118.763 655.253 120.769 649.597 120.769 649.597 132.119C649.597 134.346 650.799 135.258 653.102 135.258 653.574 135.258 654.047 135.221 654.523 135.181L654.523 137.226"/>
  </g>
</svg>
