<svg xmlns="http://www.w3.org/2000/svg" xmlns:xlink="http://www.w3.org/1999/xlink" width="452" height="449" viewBox="0 0 452 449">
  <defs>
    <polygon id="logo-vertical-a" points=".06 60.533 .06 .189 451.955 .189 451.955 60.533"/>
    <polygon id="logo-vertical-c" points=".794 27.94 35.633 27.94 35.633 .271 .794 .271"/>
  </defs>
  <g fill="none" fill-rule="evenodd">
    <path fill="#000206" d="M115.79,368.359 L129.898,368.359 L129.898,399.842 L122.761,399.842 L122.761,393.41 C121.442,397.838 118.659,400.533 113.261,400.533 C104.731,400.533 100.818,393.758 100.818,384.629 L100.818,356.101 C100.818,346.89 105.254,340.187 115.71,340.187 C126.674,340.187 129.898,346.277 129.898,354.978 L129.898,360.189 L120.841,360.189 L120.841,354.187 C120.841,350.535 119.442,348.455 115.87,348.455 C112.305,348.455 110.753,350.976 110.753,354.543 L110.753,386.187 C110.753,389.754 112.225,392.271 115.623,392.271 C118.84,392.271 120.492,390.449 120.492,386.627 L120.492,376.193 L115.79,376.193 L115.79,368.359"/>
    <polyline fill="#000206" points="134.687 340.896 144.615 340.896 144.615 391.758 156.449 391.758 156.449 399.842 134.687 399.842 134.687 340.896"/>
    <path fill="#000206" d="M179.796 386.187L179.796 354.543C179.796 350.976 178.224 348.451 174.644 348.451 171.166 348.451 169.594 350.976 169.594 354.543L169.594 386.187C169.594 389.754 171.166 392.279 174.644 392.279 178.224 392.279 179.796 389.754 179.796 386.187M159.667 384.629L159.667 356.101C159.667 346.89 164.202 340.203 174.644 340.203 185.181 340.203 189.71 346.89 189.71 356.101L189.71 384.629C189.71 393.758 185.181 400.533 174.644 400.533 164.202 400.533 159.667 393.758 159.667 384.629M204.42 373.32L204.42 391.758 208.775 391.758C212.086 391.758 213.651 390.101 213.651 386.971L213.651 378.107C213.651 374.98 212.174 373.32 208.688 373.32L204.42 373.32zM204.42 365.754L207.905 365.754C211.137 365.754 212.615 364.101 212.615 360.974L212.615 353.756C212.615 350.535 211.137 348.98 207.825 348.98L204.42 348.98 204.42 365.754zM194.499 340.896L208.862 340.896C218.796 340.896 222.101 345.498 222.101 353.84L222.101 359.844C222.101 364.795 220.268 367.935 216.181 369.24 221.138 370.371 223.579 373.668 223.579 379.064L223.579 386.887C223.579 395.236 219.84 399.842 209.912 399.842L194.499 399.842 194.499 340.896 194.499 340.896zM238.115 381.144L246.036 381.144 242.129 357.504 242.036 357.504 238.115 381.144zM225.666 399.842L236.811 340.896 248.137 340.896 259.368 399.842 249.174 399.842 247.341 389.064 236.811 389.064 235.072 399.842 225.666 399.842 225.666 399.842z"/>
    <polyline fill="#000206" points="262.593 340.896 272.52 340.896 272.52 391.758 284.353 391.758 284.353 399.842 262.593 399.842 262.593 340.896"/>
    <path fill="#000206" d="M311.26 368.359L325.361 368.359 325.361 399.842 318.224 399.842 318.224 393.41C316.912 397.838 314.129 400.533 308.73 400.533 300.195 400.533 296.281 393.758 296.281 384.629L296.281 356.101C296.281 346.89 300.717 340.187 311.166 340.187 322.137 340.187 325.361 346.277 325.361 354.978L325.361 360.189 316.31 360.189 316.31 354.187C316.31 350.535 314.905 348.455 311.333 348.455 307.768 348.455 306.202 350.976 306.202 354.543L306.202 386.187C306.202 389.754 307.681 392.271 311.086 392.271 314.304 392.271 315.956 390.449 315.956 386.627L315.956 376.193 311.26 376.193 311.26 368.359M350.267 386.187L350.267 354.543C350.267 350.976 348.687 348.451 345.129 348.451 341.637 348.451 340.064 350.976 340.064 354.543L340.064 386.187C340.064 389.754 341.637 392.279 345.129 392.279 348.687 392.279 350.267 389.754 350.267 386.187M330.151 384.629L330.151 356.101C330.151 346.89 334.673 340.203 345.129 340.203 355.658 340.203 360.181 346.89 360.181 356.101L360.181 384.629C360.181 393.758 355.658 400.533 345.129 400.533 334.673 400.533 330.151 393.758 330.151 384.629M374.557 381.144L382.476 381.144 378.557 357.504 378.47 357.504 374.557 381.144zM362.101 399.842L373.245 340.896 384.57 340.896 395.803 399.842 385.607 399.842 383.781 389.064 373.245 389.064 371.499 399.842 362.101 399.842 362.101 399.842z"/>
    <polyline fill="#000206" points="399.014 340.896 408.935 340.896 408.935 391.758 420.788 391.758 420.788 399.842 399.014 399.842 399.014 340.896"/>
    <g transform="translate(0 340)">
      <mask id="logo-vertical-b" fill="#fff">
        <use xlink:href="#logo-vertical-a"/>
      </mask>
      <path fill="#000206" d="M423.484,47.15 L423.484,39.23 L432.709,39.23 L432.709,47.322 C432.709,50.629 434.201,52.537 437.593,52.537 C440.723,52.537 442.114,50.449 442.114,47.322 L442.114,45.06 C442.114,41.662 440.723,39.582 437.673,36.713 L431.833,30.889 C426.18,25.322 423.571,21.931 423.571,15.152 L423.571,13.148 C423.571,5.844 427.839,0.189 437.499,0.189 C447.426,0.189 451.346,5.07 451.346,13.586 L451.346,18.377 L442.288,18.377 L442.288,13.238 C442.288,9.847 440.723,8.191 437.593,8.191 C434.796,8.191 432.883,9.76 432.883,13.064 L432.883,14.275 C432.883,17.586 434.716,19.492 437.593,22.275 L443.947,28.533 C449.339,34.015 451.955,37.324 451.955,43.844 L451.955,46.713 C451.955,54.801 447.606,60.533 437.499,60.533 C427.397,60.533 423.484,54.889 423.484,47.15" mask="url(#logo-vertical-b)"/>
      <polyline fill="#000206" points="0 .896 26.377 .896 26.377 8.98 18.188 8.98 18.188 59.842 8.181 59.842 8.181 8.98 0 8.98 0 .896" mask="url(#logo-vertical-b)"/>
    </g>
    <polyline fill="#000206" points="49.616 373.849 40.044 373.849 40.044 399.842 30.123 399.842 30.123 340.896 40.044 340.896 40.044 365.847 49.616 365.847 49.616 340.896 59.631 340.896 59.631 399.842 49.616 399.842 49.616 373.849"/>
    <polyline fill="#000206" points="64.421 340.896 88.108 340.896 88.108 348.98 74.355 348.98 74.355 365.847 84.188 365.847 84.188 373.849 74.355 373.849 74.355 391.758 88.108 391.758 88.108 399.842 64.421 399.842 64.421 340.896"/>
    <path fill="#56c02b" d="M149.968,107.955 C153.718,101.584 158.266,95.744 163.479,90.574 L119.175,41.993 C108.028,52.645 98.523,64.994 91.047,78.605 L149.968,107.955"/>
    <path fill="#dda63a" d="M258.577,73.635 C265.285,76.709 271.524,80.631 277.155,85.275 L321.585,36.768 C309.883,26.677 296.614,18.351 282.21,12.202 L258.577,73.635"/>
    <path fill="#c5192d" d="M360.325,88.242 L301.439,117.596 C304.252,124.16 306.251,131.131 307.335,138.402 L372.839,132.219 C370.907,116.711 366.614,101.924 360.325,88.242"/>
    <path fill="#4c9f38" d="M297.214,109.086 L356.093,79.736 C348.799,66.184 339.497,53.872 328.579,43.206 L284.149,91.701 C289.21,96.9 293.61,102.738 297.214,109.086"/>
    <path fill="#3f7e44" d="M138.267,150.931 C138.267,149.607 138.311,148.283 138.368,146.967 L72.849,141.101 C72.644,144.349 72.518,147.627 72.518,150.931 C72.518,163.498 74.079,175.707 76.98,187.375 L140.259,169.222 C138.962,163.326 138.267,157.213 138.267,150.931"/>
    <path fill="#fcc30b" d="M288.968,204.783 C284.311,210.451 278.936,215.504 272.989,219.814 L307.583,275.824 C320.422,267.125 331.852,256.5 341.46,244.365 L288.968,204.783"/>
    <path fill="#ff3a21" d="M308.25,150.931 C308.25,157.135 307.583,163.183 306.303,169.01 L369.574,187.189 C372.459,175.572 373.997,163.426 373.997,150.931 C373.997,147.828 373.894,144.748 373.704,141.68 L308.191,147.867 C308.227,148.892 308.25,149.908 308.25,150.931"/>
    <path fill="#fd9d24" d="M158.61,206.035 L106.242,245.836 C115.982,257.828 127.517,268.281 140.441,276.816 L175.028,220.867 C168.935,216.654 163.414,211.66 158.61,206.035"/>
    <path fill="#0a97d9" d="M139.328,137.514 C140.5,130.113 142.645,123.035 145.603,116.406 L86.741,87.08 C80.237,100.922 75.778,115.904 73.75,131.633 L139.328,137.514"/>
    <path fill="#a21942" d="M299.536,280.89 L264.993,224.955 C258.717,228.498 251.957,231.279 244.833,233.146 L257.024,297.851 C272.191,294.367 286.493,288.582 299.536,280.89"/>
    <path fill="#26bde2" d="M303.782,178.172 C301.491,184.9 298.393,191.25 294.586,197.109 L347.12,236.734 C355.653,224.467 362.397,210.883 367.003,196.34 L303.782,178.172"/>
    <path fill="#fd6925" d="M235.517,235.035 C231.518,235.613 227.425,235.928 223.258,235.928 C219.912,235.928 216.608,235.719 213.365,235.342 L201.18,300.049 C208.392,301.107 215.759,301.668 223.258,301.668 C231.577,301.668 239.742,300.984 247.695,299.683 L235.517,235.035"/>
    <path fill="#e5243b" d="M228.692,66.107 C235.993,66.576 243.044,67.965 249.725,70.168 L273.355,8.753 C259.296,3.788 244.298,0.849 228.692,0.3 L228.692,66.107"/>
    <path fill="#dd1367" d="M203.998,233.724 C196.631,232.006 189.63,229.33 183.135,225.834 L148.526,281.81 C161.84,289.431 176.397,295.074 191.826,298.361 L203.998,233.724"/>
    <path fill="#19486a" d="M197.716,69.865 C204.54,67.707 211.739,66.393 219.187,66.045 L219.187,0.247 C203.369,0.669 188.173,3.55 173.923,8.493 L197.716,69.865"/>
    <path fill="#bf8b2e" d="M152.847,198.474 C148.673,192.308 145.267,185.556 142.82,178.377 L79.586,196.523 C84.375,211.605 91.472,225.658 100.472,238.275 L152.847,198.474"/>
    <path fill="#00689d" d="M170.599,84.266 C176.155,79.865 182.27,76.156 188.825,73.236 L165.046,11.895 C150.884,17.841 137.834,25.893 126.264,35.647 L170.599,84.266"/>
    <polyline fill="#161617" points="20.733 426.781 8.982 426.781 8.982 439.881 6.501 439.881 6.501 412.515 22.008 412.515 22.008 414.814 8.982 414.814 8.982 424.486 20.733 424.486 20.733 426.781"/>
    <path fill="#161617" d="M32.806 423.537C27.987 423.537 27.695 426.635 27.695 430.758 27.695 434.883 27.987 437.984 32.806 437.984 37.549 437.984 37.913 434.883 37.913 430.758 37.913 426.635 37.549 423.537 32.806 423.537zM32.806 440.246C26.565 440.246 25.143 436.346 25.143 430.758 25.143 425.176 26.565 421.271 32.806 421.271 39.082 421.271 40.468 425.176 40.468 430.758 40.468 436.346 39.082 440.246 32.806 440.246L32.806 440.246zM54.876 423.83C54.329 423.642 53.597 423.537 52.687 423.537 50.205 423.537 48.746 423.935 47.397 424.701L47.397 439.881 44.842 439.881 44.842 421.637 46.265 421.637 46.811 423.166C48.526 421.894 50.645 421.271 52.687 421.271 53.526 421.271 54.18 421.347 54.876 421.457L54.876 423.83M66.403 419.81C66.403 423.717 68.664 424.082 72.97 424.629 78.333 425.326 81.654 426.635 81.654 431.998 81.654 435.722 79.686 440.246 71.546 440.246 69.028 440.246 65.6 439.553 63.884 438.787L63.884 436.416C65.634 437.002 67.785 437.945 71.586 437.945 77.273 437.945 78.989 435.287 78.989 431.998 78.989 428.094 77.384 427.33 72.822 426.748 66.363 425.941 63.884 424.445 63.884 419.775 63.884 416.603 65.419 412.15 73.079 412.15 76.436 412.15 78.695 412.736 80.195 413.426L80.195 415.871C77.716 414.814 75.744 414.447 73.042 414.447 67.642 414.447 66.403 416.93 66.403 419.81M88.363 434.883C88.363 437.256 89.745 437.984 92.015 437.984 94.384 437.984 95.589 437.582 96.938 436.814L96.938 421.637 99.493 421.637 99.493 439.881 98.071 439.881 97.524 438.347C95.803 439.627 93.943 440.246 92.015 440.246 87.667 440.246 85.809 438.273 85.809 434.773L85.809 421.637 88.363 421.637 88.363 434.883M110.324 429.41C115.505 429.879 116.751 431.635 116.751 434.629 116.751 437.437 114.958 440.246 109.411 440.246 107.659 440.246 105.143 439.81 103.975 439.334L103.975 437.144C105.106 437.549 106.859 437.984 109.448 437.984 113.242 437.984 114.266 436.379 114.266 434.662 114.266 432.984 113.756 431.818 110.142 431.525 104.851 431.049 103.755 429.189 103.755 426.672 103.755 424.082 105.436 421.271 110.584 421.271 112.293 421.271 114.228 421.49 115.834 422.183L115.834 424.375C114.411 423.898 112.989 423.537 110.544 423.537 106.933 423.537 106.163 424.881 106.163 426.672 106.163 428.279 106.819 429.119 110.324 429.41M130.499 440.099C130.062 440.209 129.33 440.246 128.857 440.246 125.832 440.246 123.017 438.861 123.017 435.287L123.017 423.642 119.369 423.642 119.369 422.514 123.017 421.457 123.017 416.527 125.571 415.797 125.571 421.637 131.228 421.637 131.228 423.642 125.571 423.642 125.571 434.992C125.571 437.219 126.774 438.131 129.077 438.131 129.55 438.131 130.026 438.094 130.499 438.055L130.499 440.099M140.46 430.652C137.865 430.906 136.735 432.252 136.735 434.369 136.735 436.015 137.139 437.984 140.602 437.984 142.575 437.984 143.888 437.437 145.454 436.525L145.454 430.172 140.46 430.652zM141.112 423.537C138.671 423.537 137.065 423.972 135.643 424.445L135.643 422.256C137.245 421.564 139.364 421.271 141.112 421.271 146.587 421.271 148.009 423.752 148.009 427.404L148.009 439.881 146.587 439.881 146.04 438.424C144.398 439.627 142.355 440.246 140.53 440.246 135.746 440.246 134.147 437.437 134.147 434.369 134.147 431.271 135.859 428.971 140.64 428.68L145.454 428.387 145.454 427.363C145.454 424.701 144.508 423.537 141.112 423.537L141.112 423.537zM153.333 436.232L153.333 421.637 155.814 421.637 155.814 436.525C155.814 437.801 156.214 438.168 157.347 438.168L157.347 440.246C154.718 440.246 153.333 439.15 153.333 436.232zM154.575 414.342C155.599 414.342 156.401 415.14 156.401 416.164 156.401 417.187 155.599 417.99 154.575 417.99 153.556 417.99 152.749 417.187 152.749 416.164 152.749 415.14 153.556 414.342 154.575 414.342L154.575 414.342zM172.635 426.635C172.635 424.262 171.249 423.537 168.987 423.537 166.614 423.537 165.409 423.935 164.057 424.701L164.057 439.881 161.505 439.881 161.505 421.637 162.931 421.637 163.476 423.166C165.192 421.894 167.052 421.271 168.987 421.271 173.328 421.271 175.189 423.242 175.189 426.748L175.189 439.881 172.635 439.881 172.635 426.635M185.511 430.652C182.919 430.906 181.789 432.252 181.789 434.369 181.789 436.015 182.192 437.984 185.657 437.984 187.623 437.984 188.942 437.437 190.508 436.525L190.508 430.172 185.511 430.652zM186.167 423.537C183.722 423.537 182.116 423.972 180.694 424.445L180.694 422.256C182.3 421.564 184.418 421.271 186.167 421.271 191.64 421.271 193.063 423.752 193.063 427.404L193.063 439.881 191.64 439.881 191.095 438.424C189.456 439.627 187.41 440.246 185.585 440.246 180.8 440.246 179.201 437.437 179.201 434.369 179.201 431.271 180.913 428.971 185.694 428.68L190.508 428.387 190.508 427.363C190.508 424.701 189.561 423.537 186.167 423.537L186.167 423.537zM200.355 424.701L200.355 436.814C201.778 437.582 203.095 437.984 205.466 437.984 209.844 437.984 210.39 434.369 210.39 430.758 210.39 427.144 209.844 423.537 205.466 423.537 203.095 423.537 201.778 423.935 200.355 424.701zM212.945 430.758C212.945 436.015 211.339 440.246 205.466 440.246 203.497 440.246 201.671 439.59 199.772 438.385L199.226 439.881 197.804 439.881 197.804 412.515 200.355 412.515 200.355 422.769C201.928 421.744 203.786 421.271 205.466 421.271 211.339 421.271 212.945 425.506 212.945 430.758L212.945 430.758zM217.905 436.232L217.905 412.515 220.387 412.515 220.387 436.525C220.387 437.801 220.79 438.168 221.916 438.168L221.916 440.246C219.291 440.246 217.905 439.15 217.905 436.232M228.263 429.849L237.751 429.849C237.751 426.597 237.567 423.537 233.377 423.537 229.139 423.537 228.372 426.564 228.263 429.849zM233.377 421.271C239.576 421.271 240.306 425.506 240.306 430.758L240.306 431.928 228.263 431.928C228.412 435.103 229.249 437.984 233.377 437.984 236.002 437.984 237.606 437.728 239.393 436.963L239.393 439.15C237.347 440.062 235.161 440.246 233.377 440.246 227.21 440.246 225.714 436.015 225.714 430.758 225.714 425.506 227.21 421.271 233.377 421.271L233.377 421.271zM253.725 437.582L258.835 437.582C265.401 437.582 267.594 432.764 267.594 426.201 267.594 419.633 265.401 414.814 258.835 414.814L253.725 414.814 253.725 437.582zM251.249 439.881L251.249 412.515 258.688 412.515C267.63 412.515 270.218 418.43 270.218 426.201 270.218 433.972 267.63 439.881 258.688 439.881L251.249 439.881 251.249 439.881zM276.964 429.849L286.452 429.849C286.452 426.597 286.268 423.537 282.075 423.537 277.844 423.537 277.074 426.564 276.964 429.849zM282.075 421.271C288.278 421.271 289.008 425.506 289.008 430.758L289.008 431.928 276.964 431.928C277.111 435.103 277.954 437.984 282.075 437.984 284.7 437.984 286.306 437.728 288.099 436.963L288.099 439.15C286.049 440.062 283.86 440.246 282.075 440.246 275.905 440.246 274.413 436.015 274.413 430.758 274.413 425.506 275.905 421.271 282.075 421.271L282.075 421.271z"/>
    <polyline fill="#161617" points="294.185 421.637 299.401 436.597 304.619 421.637 307.427 421.637 300.311 440.246 298.492 440.246 291.376 421.637 294.185 421.637"/>
    <path fill="#161617" d="M311.987 429.849L321.472 429.849C321.472 426.597 321.292 423.537 317.095 423.537 312.864 423.537 312.098 426.564 311.987 429.849zM317.095 421.271C323.298 421.271 324.027 425.506 324.027 430.758L324.027 431.928 311.987 431.928C312.131 435.103 312.974 437.984 317.095 437.984 319.721 437.984 321.325 437.728 323.118 436.963L323.118 439.15C321.072 440.062 318.884 440.246 317.095 440.246 310.929 440.246 309.433 436.015 309.433 430.758 309.433 425.506 310.929 421.271 317.095 421.271L317.095 421.271zM328.988 436.232L328.988 412.515 331.466 412.515 331.466 436.525C331.466 437.801 331.87 438.168 332.999 438.168L332.999 440.246C330.374 440.246 328.988 439.15 328.988 436.232"/>
    <g transform="translate(336 421)">
      <mask id="logo-vertical-d" fill="#fff">
        <use xlink:href="#logo-vertical-c"/>
      </mask>
      <path fill="#161617" d="M8.456 2.537C3.639 2.537 3.349 5.635 3.349 9.758 3.349 13.883 3.639 16.984 8.456 16.984 13.2 16.984 13.562 13.883 13.562 9.758 13.562 5.635 13.2 2.537 8.456 2.537zM8.456 19.246C2.217 19.246.794 15.346.794 9.758.794 4.176 2.217.271 8.456.271 14.732.271 16.118 4.176 16.118 9.758 16.118 15.346 14.732 19.246 8.456 19.246L8.456 19.246zM33.078 9.758C33.078 6.144 32.532 2.537 28.154 2.537 25.782 2.537 24.47 2.935 23.047 3.701L23.047 15.814C24.47 16.582 25.782 16.984 28.154 16.984 32.532 16.984 33.078 13.369 33.078 9.758zM23.047 17.75L23.047 28 20.491 28 20.491.637 21.915.637 22.462 2.133C24.36.931 26.185.271 28.154.271 34.028.271 35.633 4.506 35.633 9.758 35.633 15.015 34.028 19.246 28.154 19.246 26.476 19.246 24.612 18.769 23.047 17.75L23.047 17.75z" mask="url(#logo-vertical-d)"/>
    </g>
    <path fill="#161617" d="M397.535 426.635C397.535 424.262 396.149 423.537 394.07 423.537 391.809 423.537 390.565 423.972 389.106 424.738 389.254 425.326 389.327 425.941 389.327 426.635L389.327 439.881 386.771 439.881 386.771 426.635C386.771 424.262 385.386 423.537 383.307 423.537 381.187 423.537 379.988 423.898 378.563 424.629L378.563 439.881 376.011 439.881 376.011 421.637 377.433 421.637 377.979 423.133C379.732 421.857 381.631 421.271 383.307 421.271 385.752 421.271 387.468 421.963 388.413 423.349 390.313 422.037 392.245 421.271 394.07 421.271 397.975 421.271 400.087 423.097 400.087 426.748L400.087 439.881 397.535 439.881 397.535 426.635M406.833 429.849L416.321 429.849C416.321 426.597 416.141 423.537 411.944 423.537 407.713 423.537 406.943 426.564 406.833 429.849zM411.944 421.271C418.146 421.271 418.876 425.506 418.876 430.758L418.876 431.928 406.833 431.928C406.983 435.103 407.823 437.984 411.944 437.984 414.572 437.984 416.178 437.728 417.967 436.963L417.967 439.15C415.921 440.062 413.732 440.246 411.944 440.246 405.777 440.246 404.281 436.015 404.281 430.758 404.281 425.506 405.777 421.271 411.944 421.271L411.944 421.271zM434.377 426.635C434.377 424.262 432.991 423.537 430.729 423.537 428.357 423.537 427.151 423.935 425.806 424.701L425.806 439.881 423.247 439.881 423.247 421.637 424.673 421.637 425.22 423.166C426.935 421.894 428.794 421.271 430.729 421.271 435.07 421.271 436.933 423.242 436.933 426.748L436.933 439.881 434.377 439.881 434.377 426.635M450.977 440.099C450.538 440.209 449.809 440.246 449.336 440.246 446.307 440.246 443.496 438.861 443.496 435.287L443.496 423.642 439.848 423.642 439.848 422.514 443.496 421.457 443.496 416.527 446.051 415.797 446.051 421.637 451.707 421.637 451.707 423.642 446.051 423.642 446.051 434.992C446.051 437.219 447.253 438.131 449.556 438.131 450.028 438.131 450.501 438.094 450.977 438.055L450.977 440.099"/>
  </g>
</svg>
